<?xml version="1.0" encoding="utf-8"?>
<!-- Generator: Adobe Illustrator 22.0.1, SVG Export Plug-In . SVG Version: 6.00 Build 0)  -->
<svg version="1.1" id="Capa_1" xmlns="http://www.w3.org/2000/svg" xmlns:xlink="http://www.w3.org/1999/xlink" x="0px" y="0px"
	 viewBox="0 0 500 500" style="enable-background:new 0 0 500 500;" xml:space="preserve">
<style type="text/css">
	.st0{opacity:0.2;}
	.st1{fill:none;stroke:#000000;stroke-width:27.2179;stroke-miterlimit:10;}
</style>
<g class="st0">
	<rect x="90.3" y="33.1" width="81.7" height="40.8"/>
	<g>
		<g>
			<polygon class="st1" points="21.2,128.3 76.2,223.6 186.2,223.6 241.2,128.3 186.2,33.1 76.2,33.1 			"/>
			<rect x="25.5" y="145.4" transform="matrix(-0.5 -0.866 0.866 -0.5 -44.049 306.1066)" width="81.7" height="40.8"/>
		</g>
		<rect x="155.2" y="145.4" transform="matrix(0.5 -0.866 0.866 0.5 -45.5684 252.6115)" width="81.7" height="40.8"/>
	</g>
</g>
<g class="st0">
	<rect x="265.3" y="313.9" transform="matrix(0.5 -0.866 0.866 0.5 -136.4595 432.3227)" width="81.7" height="40.8"/>
	<g>
		<g>
			<polygon class="st1" points="316,467 426,467 481,371.8 426,276.5 316,276.5 261,371.8 			"/>
			<rect x="330.2" y="426.2" transform="matrix(-1 -1.797297e-10 1.797297e-10 -1 741.9883 893.2254)" width="81.7" height="40.8"/>
		</g>
		<rect x="395" y="313.9" transform="matrix(-0.5 -0.866 0.866 -0.5 364.1775 878.9354)" width="81.7" height="40.8"/>
	</g>
</g>
<g class="st0">
	<rect x="292.7" y="172.8" transform="matrix(-0.866 -0.5 0.5 -0.866 525.8661 527.2372)" width="81.7" height="40.8"/>
	<g>
		<g>
			<polygon class="st1" points="466.3,183.3 466.3,73.3 371,18.3 275.7,73.3 275.7,183.3 371,238.3 			"/>
			<rect x="405" y="107.9" transform="matrix(-2.246178e-10 1 -1 -2.246178e-10 574.1879 -317.499)" width="81.7" height="40.8"/>
		</g>
		<rect x="292.7" y="43.1" transform="matrix(-0.866 0.5 -0.5 -0.866 654.2106 -48.2491)" width="81.7" height="40.8"/>
	</g>
</g>
<g class="st0">
	<rect x="127.8" y="416.2" transform="matrix(-0.866 0.5 -0.5 -0.866 532.8799 730.3849)" width="81.7" height="40.8"/>
	<g>
		<g>
			<polygon class="st1" points="226.4,316.8 131.2,261.8 35.9,316.8 35.9,426.8 131.2,481.8 226.4,426.8 			"/>
			<rect x="127.8" y="286.5" transform="matrix(0.866 0.5 -0.5 0.866 176.0573 -43.1711)" width="81.7" height="40.8"/>
		</g>
		<rect x="15.5" y="351.3" transform="matrix(-2.245512e-10 1 -1 -2.245512e-10 428.0763 315.4504)" width="81.7" height="40.8"/>
	</g>
</g>
</svg>
