<?xml version="1.0" encoding="utf-8"?>
<!-- Generator: Adobe Illustrator 16.0.0, SVG Export Plug-In . SVG Version: 6.00 Build 0)  -->
<!DOCTYPE svg PUBLIC "-//W3C//DTD SVG 1.0//EN" "http://www.w3.org/TR/2001/REC-SVG-20010904/DTD/svg10.dtd">
<svg version="1.0" id="Capa_1" xmlns="http://www.w3.org/2000/svg" xmlns:xlink="http://www.w3.org/1999/xlink" x="0px" y="0px"
	 width="1200px" height="1200px" viewBox="0 0 1200 1200" enable-background="new 0 0 1200 1200" xml:space="preserve">
<g>
	<path d="M786.773,1056.369H413.227c-42.298,0-93.916-29.802-115.066-66.434L111.385,666.433
		c-21.149-36.631-21.149-96.235,0-132.867L298.16,210.064c21.149-36.631,72.769-66.433,115.066-66.433h373.547
		c42.299,0,93.918,29.802,115.066,66.433l186.775,323.502c21.149,36.632,21.149,96.235,0,132.867L901.84,989.936
		C880.691,1026.567,829.072,1056.369,786.773,1056.369z M413.227,157.631c-37.2,0-84.342,27.217-102.941,59.433L123.51,540.566
		c-18.601,32.216-18.601,86.651,0,118.867l186.775,323.502c18.601,32.216,65.742,59.434,102.941,59.434h373.547
		c37.201,0,84.342-27.217,102.941-59.434l186.775-323.502c18.601-32.216,18.601-86.65,0-118.867L889.715,217.064
		c-18.6-32.216-65.74-59.433-102.941-59.433H413.227z"/>
</g>
</svg>
